<svg xmlns:xlink="http://www.w3.org/1999/xlink" xmlns="http://www.w3.org/2000/svg" width="19.512" height="19.512" viewBox="0 0 19.512 19.512"><path d="M160.184,19.512h-4.611A4.578,4.578,0,0,1,151,14.939v-.8a.762.762,0,0,1,1.524,0v.8a3.052,3.052,0,0,0,3.049,3.049h4.611a3.052,3.052,0,0,0,3.049-3.049V4.573a3.052,3.052,0,0,0-3.049-3.049h-4.611a3.052,3.052,0,0,0-3.049,3.049v.762a.762.762,0,0,1-1.524,0V4.573A4.578,4.578,0,0,1,155.573,0h4.611a4.578,4.578,0,0,1,4.573,4.573V14.939A4.578,4.578,0,0,1,160.184,19.512Z" transform="translate(-145.246)"/><path d="M9.794,171.164a.762.762,0,0,1-.538-1.3L11.02,168.1a.754.754,0,0,0,0-1.067l-1.762-1.73a.762.762,0,0,1,1.068-1.088l1.764,1.732,0,0a2.278,2.278,0,0,1,0,3.228l-1.764,1.759a.76.76,0,0,1-.538.222Zm-.038-3.658a.762.762,0,0,0-.762-.762H.762a.762.762,0,1,0,0,1.524H8.994A.762.762,0,0,0,9.756,167.506Z" transform="translate(0 -157.75)"/></svg>