<svg xmlns="http://www.w3.org/2000/svg" width="74" height="60" viewBox="0 0 74 60">
    <g transform="translate(0 -0.102)">
        <path d="M17.5,60a2.406,2.406,0,0,1-2.365-2.446v-21.2H2.365A2.406,2.406,0,0,1,0,33.913V2.446A2.406,2.406,0,0,1,2.365,0h30.27A2.406,2.406,0,0,1,35,2.446V33.913a2.546,2.546,0,0,1-.029.382.125.125,0,0,1,0,.028l-.053.229-.876,2.817L30.839,47.875l-2.345,7.178-.4,1.215-.377,1.354a6.758,6.758,0,0,1-.57,1.362A2.319,2.319,0,0,1,25.225,60Z" transform="translate(74 60.102) rotate(180)" fill="#c8c8c8"></path>
        <path d="M17.5,60a2.406,2.406,0,0,1-2.365-2.446v-21.2H2.365A2.406,2.406,0,0,1,0,33.913V2.446A2.406,2.406,0,0,1,2.365,0h30.27A2.406,2.406,0,0,1,35,2.446V33.913a2.546,2.546,0,0,1-.029.382.125.125,0,0,1,0,.028l-.053.229-.876,2.817L30.839,47.875l-2.345,7.178-.4,1.215-.377,1.354a6.758,6.758,0,0,1-.57,1.362A2.319,2.319,0,0,1,25.225,60Z" transform="translate(35 60.102) rotate(180)" fill="#c8c8c8"></path>
    </g>
</svg>